<svg xmlns="http://www.w3.org/2000/svg" xmlns:xlink="http://www.w3.org/1999/xlink" version="1.1" width="256" height="256" viewBox="0 0 256 256" xml:space="preserve">
<g style="stroke: none; stroke-width: 0; stroke-dasharray: none; stroke-linecap: butt; stroke-linejoin: miter; stroke-miterlimit: 10; fill: none; fill-rule: nonzero; opacity: 1;" transform="translate(1.4065934065934016 1.4065934065934016) scale(2.81 2.81)">
	<path d="M 83.566 55.73 h -0.229 v -0.009 V 42.906 c 0 -8.069 -6.564 -14.633 -14.633 -14.633 H 57.994 l 15.815 -12.898 c 0.972 -0.792 1.576 -1.916 1.703 -3.162 c 0.126 -1.247 -0.24 -2.469 -1.033 -3.44 c -1.634 -2.003 -4.596 -2.306 -6.602 -0.67 L 50.662 22.143 c -3.761 -2.461 -7.564 -2.46 -11.325 0 L 22.123 8.103 c -2.004 -1.635 -4.966 -1.334 -6.602 0.671 c -1.635 2.004 -1.334 4.966 0.671 6.602 l 15.814 12.898 H 21.295 c -8.069 0 -14.633 6.564 -14.633 14.633 v 12.815 v 0.009 H 6.434 c -3.193 0 -5.79 2.598 -5.79 5.79 v 18.268 V 89 c 0 0.553 0.448 1 1 1 h 9.211 c 0.552 0 1 -0.447 1 -1 v -8.212 h 66.289 V 89 c 0 0.553 0.447 1 1 1 h 9.212 c 0.553 0 1 -0.447 1 -1 v -9.212 V 61.521 C 89.356 58.328 86.759 55.73 83.566 55.73 z M 81.338 42.906 v 8.08 c -1.196 -1.169 -2.828 -1.892 -4.628 -1.892 c -3.761 0 -7.361 -1.161 -10.413 -3.357 c -2.661 -1.916 -5.701 -3.111 -8.904 -3.544 v -11.92 h 11.313 C 75.671 30.273 81.338 35.94 81.338 42.906 z M 17.071 10.038 c 0.938 -1.15 2.637 -1.323 3.788 -0.385 l 17.785 14.506 c 0.165 0.134 0.392 0.213 0.604 0.224 c 0.225 0.009 0.456 -0.055 0.641 -0.19 c 3.439 -2.503 6.781 -2.504 10.221 0 c 0.356 0.26 0.902 0.245 1.245 -0.034 L 69.141 9.653 c 1.15 -0.938 2.85 -0.765 3.789 0.385 c 0.938 1.15 0.766 2.849 -0.385 3.788 L 55.707 27.558 c -0.269 0.219 -0.405 0.562 -0.359 0.905 c 0.026 0.202 0.045 0.407 0.045 0.615 v 12.95 c -0.226 -0.008 -0.45 -0.026 -0.677 -0.026 H 35.284 c -0.227 0 -0.451 0.019 -0.677 0.026 v -12.95 c 0 -0.209 0.02 -0.415 0.046 -0.617 c 0.044 -0.343 -0.091 -0.685 -0.36 -0.903 L 17.456 13.825 C 16.306 12.887 16.133 11.188 17.071 10.038 z M 21.295 30.273 h 11.312 v 11.92 c -3.204 0.432 -6.243 1.628 -8.904 3.543 c -3.052 2.196 -6.652 3.357 -10.413 3.357 c -1.8 0 -3.432 0.724 -4.628 1.892 v -8.08 C 8.662 35.94 14.33 30.273 21.295 30.273 z M 8.662 55.722 c 0 -2.552 2.076 -4.628 4.628 -4.628 c 4.183 0 8.188 -1.291 11.581 -3.734 c 3.052 -2.196 6.652 -3.357 10.413 -3.357 h 19.432 c 3.761 0 7.361 1.161 10.413 3.357 c 3.394 2.443 7.398 3.734 11.581 3.734 c 2.552 0 4.628 2.076 4.628 4.628 L 8.662 55.73 V 55.722 z M 2.644 61.521 c 0 -2.09 1.7 -3.79 3.79 -3.79 h 1.228 h 74.676 h 1.229 c 2.09 0 3.79 1.7 3.79 3.79 v 17.268 h -8.212 H 10.855 H 2.644 V 61.521 z M 9.855 88 H 2.644 v -7.212 h 7.211 V 88 z M 87.356 88 h -7.212 v -7.212 h 7.212 V 88 z" style="stroke: none; stroke-width: 1; stroke-dasharray: none; stroke-linecap: butt; stroke-linejoin: miter; stroke-miterlimit: 10; fill: rgb(0,0,0); fill-rule: nonzero; opacity: 1;" transform=" matrix(1 0 0 1 0 0) " stroke-linecap="round"/>
	<path d="M 80.511 71.19 c 0 -0.553 -0.447 -1 -1 -1 H 10.489 c -0.552 0 -1 0.447 -1 1 s 0.448 1 1 1 h 69.021 C 80.063 72.19 80.511 71.743 80.511 71.19 z" style="stroke: none; stroke-width: 1; stroke-dasharray: none; stroke-linecap: butt; stroke-linejoin: miter; stroke-miterlimit: 10; fill: rgb(0,0,0); fill-rule: nonzero; opacity: 1;" transform=" matrix(1 0 0 1 0 0) " stroke-linecap="round"/>
	<path d="M 45 18.085 c 4.986 0 9.043 -4.057 9.043 -9.042 C 54.043 4.057 49.986 0 45 0 s -9.043 4.057 -9.043 9.043 C 35.957 14.029 40.014 18.085 45 18.085 z M 45 2 c 3.884 0 7.043 3.16 7.043 7.043 S 48.884 16.085 45 16.085 c -3.883 0 -7.043 -3.159 -7.043 -7.042 S 41.117 2 45 2 z" style="stroke: none; stroke-width: 1; stroke-dasharray: none; stroke-linecap: butt; stroke-linejoin: miter; stroke-miterlimit: 10; fill: rgb(0,0,0); fill-rule: nonzero; opacity: 1;" transform=" matrix(1 0 0 1 0 0) " stroke-linecap="round"/>
</g>
</svg>